<svg id="Layer_1" data-name="Layer 1" xmlns="http://www.w3.org/2000/svg" viewBox="0 0 250 250"><defs><style>.cls-1{fill:#fcd305;}</style></defs><title>Grocode Home Icons</title><path class="cls-1" d="M142.31,143.63c1.42.07,2.45.16,3.48.16,9.76,0,19.52,0,29.28,0,3.93,0,5.11,1.2,5.12,5.17,0,13.26.07,26.52-.05,39.78a5.45,5.45,0,0,0,2.7,5.21c3.44,2.29,6.72,4.82,10,7.34,3.69,2.84,3.54,5.49-.31,7.84-3.61,2.2-7.19,4.45-11.06,6.86,3.63,6.41,7.15,12.65,10.68,18.89.52.92,1.1,1.81,1.55,2.77,1.12,2.35.76,4.44-1.62,5.7s-4.31.5-5.61-1.82q-5.15-9.13-10.27-18.3c-.45-.81-1-1.58-1.62-2.62-3.92,2.41-7.76,4.6-11.42,7.07s-7.74,1.31-7.84-3.86c-.11-5.49-.73-11-1.14-16.71H142.32v3q0,16.55,0,33.1c0,4.16-1.12,5.36-5.23,5.36q-64.92,0-129.84,0C3,248.58,2,247.48,2,242.87Q2,149.79,2,56.71,2,32.52,2,8.33c0-5.15.94-6.06,6.18-6.06h125.7c8.25,0,8.43.16,8.43,8.26V143.63ZM107.92,183.9V151.31c0-7.06,0-7.11,6.88-7.59.19,0,.36-.19.69-.38.13-1.65.27-3.4.4-5.19h7.79c.09,2,.17,3.73.24,5.44h10.51V46.35c-1.14-.05-2.08-.13-3-.13q-59,0-118-.06c-2.95,0-3.44,1-3.43,3.64Q10,115,9.89,180.27c0,2.94.81,3.71,3.72,3.7,25.14-.12,50.27-.07,75.41-.07Zm-.36,8.17H10.18v48.52H134V206.52c-7.27,0-14.25,0-21.24,0-4,0-5.12-1.14-5.19-5.11C107.52,198.35,107.56,195.3,107.56,192.07Zm27-181.78H10.16V37.48H134.54Zm-18.3,141.36v46.83h37.63c-.42-5.8-.82-11.26-1.2-16.73-.15-2.19-.73-4.53,1.73-6s4.2.18,6,1.51l11.16,8.33v-34Zm45,37c.73,10.1,1.4,19.34,2.09,29l20.68-12C176.38,200,169.14,194.56,161.2,188.61Z"/><path class="cls-1" d="M43.59,103.19c-5.93,0-11.86,0-17.79,0-3.9,0-5-1.07-5-4.84q0-17.64,0-35.27c0-4.48,1.2-5.69,5.6-5.69q17.48,0,35,0c4.15,0,5.28,1.11,5.29,5.27q0,17.64,0,35.27c0,4.17-1.12,5.24-5.28,5.26C55.46,103.2,49.53,103.19,43.59,103.19ZM28.86,65.6V95.28h29.6V65.6Z"/><path class="cls-1" d="M81.34,102.92v-7.6h41.84v7.6Z"/><path class="cls-1" d="M123.22,58v7.48H81.4V58Z"/><path class="cls-1" d="M81.31,84.05V76.62H123.2v7.43Z"/><path class="cls-1" d="M45.5,123.89v-7.66H66.86v7.66Z"/><path class="cls-1" d="M77.41,123.9v-7.68H98.76v7.68Z"/><path class="cls-1" d="M115.69,130.39v-6.08h-6.25v-8.15c3.63,0,7.43-.32,11.1.19,1.22.16,2.85,2.36,3,3.8.46,3.3.15,6.7.15,10.24Z"/><path class="cls-1" d="M45.56,173.7v-7.54H66.91v7.54Z"/><path class="cls-1" d="M98.88,166.2v7.47H77.51V166.2Z"/><path class="cls-1" d="M35,115.81v7.69l-5.9.38c-.47,2.17-.25,5.16-1.52,6.07-1.46,1.05-4.25.25-6.85.25,0-3.85-.32-7.66.19-11.35.16-1.17,2.44-2.7,3.91-2.9C28.07,115.51,31.39,115.81,35,115.81Z"/><path class="cls-1" d="M20.66,159.44h7.45l.3,6h6.07v8.18a82.93,82.93,0,0,1-10.57-.16,4.77,4.77,0,0,1-3.1-3.29C20.37,166.71,20.66,163.21,20.66,159.44Z"/><path class="cls-1" d="M28.43,137.76v14.36H20.8V137.76Z"/><path class="cls-1" d="M72.18,231.91A15.34,15.34,0,0,1,56.8,216.24a15.59,15.59,0,0,1,15.67-15.49A15.8,15.8,0,0,1,88,216.2,15.6,15.6,0,0,1,72.18,231.91Zm7.7-15.64A7.57,7.57,0,1,0,72.27,224,7.54,7.54,0,0,0,79.88,216.27Z"/><path class="cls-1" d="M72.3,20.27c2.11,0,4.22,0,6.34,0,2.36,0,3.86,1.15,3.94,3.59a3.55,3.55,0,0,1-3.57,4q-6.65.27-13.3,0A3.52,3.52,0,0,1,62.05,24c.09-2.4,1.56-3.61,3.91-3.68C68.07,20.22,70.19,20.27,72.3,20.27Z"/></svg>