<svg id="Layer_1" data-name="Layer 1" xmlns="http://www.w3.org/2000/svg" viewBox="0 0 250 250"><defs><style>.cls-1{fill:#fcd305;}</style></defs><title>Grocode Home Icons</title><path class="cls-1" d="M21.35,102.63H42.53A5.66,5.66,0,0,0,48.18,97V82.13a5.67,5.67,0,0,0-5.65-5.66H21.35a5.66,5.66,0,0,0-5.65,5.66V97A5.65,5.65,0,0,0,21.35,102.63Zm21.18-2.82v0ZM21.35,82.13H42.53V97H21.35Z"/><path class="cls-1" d="M21.35,133.51H42.53a5.67,5.67,0,0,0,5.65-5.66V113a5.66,5.66,0,0,0-5.65-5.65H21.35A5.65,5.65,0,0,0,15.7,113v14.85A5.66,5.66,0,0,0,21.35,133.51Zm21.18-2.83v0ZM21.35,113H42.53v14.85H21.35Z"/><path class="cls-1" d="M21.35,164.38H42.53a5.67,5.67,0,0,0,5.65-5.66V143.88a5.67,5.67,0,0,0-5.65-5.66H21.35a5.66,5.66,0,0,0-5.65,5.66v14.84A5.66,5.66,0,0,0,21.35,164.38Zm21.18-2.83v0ZM21.35,143.88H42.53v14.84H21.35Z"/><path class="cls-1" d="M21.35,195.26H42.53a5.67,5.67,0,0,0,5.65-5.66V174.75a5.67,5.67,0,0,0-5.65-5.66H21.35a5.66,5.66,0,0,0-5.65,5.66V189.6A5.66,5.66,0,0,0,21.35,195.26Zm21.18-2.83v0ZM21.35,174.75H42.53V189.6H21.35Z"/><path class="cls-1" d="M185.86,120.43a9.63,9.63,0,1,0-9.63-9.62A9.62,9.62,0,0,0,185.86,120.43Z"/><path class="cls-1" d="M233.67,56.71a3,3,0,1,0-3-3A3,3,0,0,0,233.67,56.71Z"/><circle class="cls-1" cx="224.3" cy="53.67" r="3.04"/><path class="cls-1" d="M214.93,56.71a3,3,0,1,0-3-3A3,3,0,0,0,214.93,56.71Z"/><path class="cls-1" d="M248.66,47.35c0-6.16-1.63-8-7.92-8-38.68,0-76.51,0-115.21.14-38.4,0-76.81.13-115.21-.13-6.21-.05-8,1.7-8,7.95q.35,78.45,0,156.91c0,6.16,1.48,8,7.82,7.93Q53,212,95.84,212c-.56-1.08-1.1-2.16-1.67-3.22a10.39,10.39,0,0,1-1-2.8H62.43V68.24H242.55V206h-81.9c0,2,.06,4,.08,6q39.92,0,79.84.12c6.07,0,8.13-1.47,8.1-7.85Q248.3,125.81,248.66,47.35ZM55.74,206H8.48V68.3H55.74ZM242.55,61.73H8.71V45.61H242.55Z"/><path class="cls-1" d="M99.93,173c0-.41.06-.82.1-1.23H93c0-15.91-.06-31.84.1-47.76a5.85,5.85,0,0,1,2.23-4c5.79-4.37,11.77-8.5,18.07-13,8.9,14.12,17.51,27.82,26.16,41.5,4.48,7.09,4.66,7.08,10.46.79,4.92-5.34,9.86-10.67,15.42-16.68,9.53,13.09,18.72,25.69,28.5,39.11H137a18.39,18.39,0,0,1-.26,6.27l13.73,0c19.07,0,38.14-.14,57.21.1,5.14.06,7-1.42,7-6.78q-.33-39.9,0-79.81c0-5.16-1.47-7-6.8-6.94q-56.85.28-113.71,0c-5.13,0-7,1.4-7,6.76.23,26.6.28,53.21,0,79.81-.06,6,2.33,7,7.53,6.94l5.61,0A21.12,21.12,0,0,1,99.93,173ZM93.38,90.73h115v81.1c-4.4,1.56-7.46.25-10.32-3.84-9.05-12.91-18.65-25.44-27.67-38.39-3.48-5-6-4.79-9.67-.42-4.83,5.71-10.11,11-15.82,17.2-9.17-14.56-17.86-28-26.15-41.67-2.72-4.48-5-5.43-9.3-2-4.87,3.94-10.19,7.33-16.09,11.5Z"/><path class="cls-1" d="M133.19,171.76h-7a9.68,9.68,0,0,1,.17,1.54c0,1.56,0,3.14,0,4.71h6.46A14.37,14.37,0,0,0,133.19,171.76Z"/><path class="cls-1" d="M111.24,171.76h-7.33l0,.15a15.48,15.48,0,0,0,.42,6.15l6.76,0c0-1.49,0-3,0-4.47A8.76,8.76,0,0,1,111.24,171.76Z"/><path class="cls-1" d="M114.89,191q0-6.5,0-13,0,6.49,0,13c0,5,0,10,0,14.95C114.91,201,114.89,196,114.89,191Z"/><path class="cls-1" d="M160.65,206c0-.93,0-1.86-.05-2.78a7.35,7.35,0,0,0-7.55-6.89,23,23,0,0,0-4.19.86c-3.22-5.27-7.31-5.46-11.51-3.63a8.33,8.33,0,0,0-7.07-5l1.37-1.32a18.26,18.26,0,0,0-7.33-30.55c-1.07-.34-2.16-.61-3.24-.91h-5c-.45.13-.89.29-1.35.38A18.52,18.52,0,0,0,100,171.76c0,.41-.09.82-.1,1.23a21.12,21.12,0,0,0,.4,5.11c1.09,5.3,4.34,9.37,9.53,12.35.49.28,1.14.85,1.15,1.3.08,4.08,0,8.17,0,12.33-1.67-1.57-3.24-3-4.74-4.49-3.1-3.08-7.24-3.55-10.5-1.13A7.34,7.34,0,0,0,93.16,206a10.39,10.39,0,0,0,1,2.8c.57,1.06,1.11,2.14,1.67,3.22,1.77,3.41,3.49,6.84,5.27,10.25,2.92,5.58,5.73,11.23,8.9,16.67a17.87,17.87,0,0,0,10,8.45h24c2.08-1.26,4.28-2.36,6.23-3.79,5.87-4.3,10-9.86,10.3-17.35.21-4.73.25-9.48.22-14.23C160.71,210,160.69,208,160.65,206ZM111.06,178v8.4c-3.22-1.22-5.7-4.5-6.76-8.36a15.48,15.48,0,0,1-.42-6.15l0-.15A14.68,14.68,0,0,1,117,159.69c7.37-.55,13.73,3.57,15.79,10.22a13.39,13.39,0,0,1,.43,1.85,14.37,14.37,0,0,1-.38,6.26,14,14,0,0,1-6.47,8.35c0-2.86,0-5.62,0-8.36,0-1.57,0-3.15,0-4.71a9.68,9.68,0,0,0-.17-1.54,7.31,7.31,0,0,0-4.68-5.51,7.72,7.72,0,0,0-8.37,1.94,7.27,7.27,0,0,0-1.87,3.57,8.76,8.76,0,0,0-.19,1.79C111.06,175,111.06,176.53,111.06,178Zm45.37,49.44c-.76,7.81-6.44,12.44-13.09,15.83a4.5,4.5,0,0,1-1.92.23c-6.09,0-12.17-.08-18.25,0a8.08,8.08,0,0,1-6.94-3,65.5,65.5,0,0,1-6.17-8.94c-2.73-5-5-10.27-7.55-15.39-.71-1.43-1.45-2.84-2.21-4.25q-1.32-2.46-2.67-4.87a8.22,8.22,0,0,1-.52-1.15c-.74-2.11-.2-4,1.67-4.86a3.54,3.54,0,0,1,4.4.77l3.95,4.09c1.3,1.33,2.61,2.66,4,3.95a3.12,3.12,0,0,0,2.55.87,3.12,3.12,0,0,0,1.21-2.42c0-.8,0-1.6,0-2.4.06-5,0-10,0-14.95q0-6.5,0-13c0-1.45,0-2.9,0-4.35a4.75,4.75,0,0,1,.38-1.91,3.8,3.8,0,0,1,6.84,0,4.8,4.8,0,0,1,.38,1.87v20.75c0,.42,0,.83,0,1.25,0,1.25.51,2.16,1.78,2.26s1.86-.78,2.09-2c.44-2.28,1.8-3.44,3.87-3.39a3.68,3.68,0,0,1,3.7,3.59c.05,1.07,0,2.15,0,3.22s.35,2.18,1.68,2.33,2-.75,2.2-2c.58-3,3.8-4.43,6-2.51a5.7,5.7,0,0,1,1.46,2.88,13.22,13.22,0,0,1,.06,3.21c0,1.22.43,2.15,1.75,2.27s2-.73,2.09-1.93a3.55,3.55,0,0,1,2.48-3.19c2.26-.85,5.05.63,5.06,3,0,.87,0,1.74,0,2.62,0,2,.05,4,.07,6A145,145,0,0,1,156.43,227.46Z"/><path class="cls-1" d="M144.31,248.54l-24.67-.06a19,19,0,0,1-10.65-9c-2.43-4.17-4.68-8.52-6.85-12.73q-1-2-2.08-4c-1-1.95-2-3.91-3-5.87-.75-1.46-1.49-2.93-2.25-4.39l-.53-1c-.37-.73-.75-1.46-1.13-2.18A11.06,11.06,0,0,1,92,206.19a8.47,8.47,0,0,1,3.12-8.68c3.7-2.74,8.53-2.24,12,1.24.89.88,1.79,1.73,2.73,2.61v-.08c0-3.22,0-6.25,0-9.35a2.14,2.14,0,0,0-.56-.45c-5.56-3.19-9-7.62-10.1-13.15a22.67,22.67,0,0,1-.42-5.39c0-.44.06-.88.11-1.31A19.64,19.64,0,0,1,114.48,155c.28-.06.55-.14.82-.22l.77-.18,5.33,0,1,.28c.76.2,1.52.4,2.26.64a19.42,19.42,0,0,1,13.54,16.07,19.15,19.15,0,0,1-.28,6.67,19.54,19.54,0,0,1-5.25,9.58,9.12,9.12,0,0,1,5.23,4.17c4.75-1.7,8.61-.43,11.49,3.78l.49-.13a13.51,13.51,0,0,1,3.13-.56,8.9,8.9,0,0,1,6,2.25,7.93,7.93,0,0,1,2.74,5.79l.06,2.79c0,2,.06,4,.07,6,0,5.52,0,10.06-.21,14.29-.31,7.09-3.94,13.24-10.79,18.26a45.68,45.68,0,0,1-4.37,2.71c-.66.37-1.31.74-1.95,1.13Zm-24.11-2.37h23.45l1.72-1a42,42,0,0,0,4.14-2.56c6.33-4.64,9.55-10,9.82-16.45.18-4.19.25-8.7.22-14.17,0-2,0-4-.08-6l-.05-2.78a5.62,5.62,0,0,0-2-4.08,6.34,6.34,0,0,0-4.38-1.65,11.66,11.66,0,0,0-2.58.49c-.46.12-.92.24-1.39.34l-.82.18-.44-.72c-2.51-4.11-5.61-5.09-10-3.16l-1.07.47-.48-1.07a7.21,7.21,0,0,0-6.15-4.3l-2.45-.32,2.38-2.27.77-.74a17.26,17.26,0,0,0,4.81-8.6,17.13,17.13,0,0,0-11.67-20c-.72-.23-1.44-.43-2.17-.62l-.87-.24h-4.68L116,157c-.34.1-.69.21-1,.28a17.25,17.25,0,0,0-13.74,14.6c0,.38-.08.76-.1,1.14a20.06,20.06,0,0,0,.38,4.82c1,4.9,3.94,8.69,9,11.57.29.16,1.71,1,1.74,2.29.07,3.18.06,6.42,0,9.56v5.54l-2-1.88-1.55-1.45c-1.11-1-2.18-2-3.21-3.06-2.68-2.67-6.2-3.07-9-1a6.16,6.16,0,0,0-2.21,6.33,9,9,0,0,0,.89,2.47c.39.74.78,1.48,1.16,2.22l.52,1q1.14,2.19,2.26,4.4c1,2,2,3.9,3,5.84.7,1.33,1.39,2.67,2.08,4,2.16,4.19,4.39,8.51,6.79,12.63A16.75,16.75,0,0,0,120.2,246.17Zm2.7-1.42a9.13,9.13,0,0,1-7.6-3.45,68.59,68.59,0,0,1-6.28-9.1c-1.71-3.15-3.26-6.43-4.76-9.61-.92-2-1.84-3.89-2.8-5.82-.71-1.42-1.45-2.83-2.2-4.23q-1.31-2.43-2.66-4.85a7.75,7.75,0,0,1-.6-1.33c-1-2.75-.11-5.17,2.26-6.31a4.72,4.72,0,0,1,5.77,1l2.12,2.19,1.83,1.89c1.06,1.1,2.46,2.53,3.92,3.92a2.64,2.64,0,0,0,1.27.61,2.55,2.55,0,0,0,.48-1.32c0-.46,0-.92,0-1.38v-1c0-3.94,0-7.88,0-11.83V176.66c0-1,0-2,0-3a6.14,6.14,0,0,1,.48-2.36,4.69,4.69,0,0,1,4.49-2.86h0a4.72,4.72,0,0,1,4.51,2.86,5.8,5.8,0,0,1,.47,2.32v21.17c0,.29,0,.58,0,.87,0,1,.39,1,.69,1.05s.63,0,.84-1c.54-2.83,2.38-4.38,5.06-4.35a4.86,4.86,0,0,1,4.85,4.72c.05,1,0,2,0,3v.27c0,1.06.3,1.1.63,1.14s.69.08.91-1.08a5.26,5.26,0,0,1,3.37-4.09,4.69,4.69,0,0,1,4.61.9,6.56,6.56,0,0,1,1.84,3.51,8.8,8.8,0,0,1,.13,2.6c0,.3,0,.6,0,.89,0,1,.34,1.06.68,1.09s.71.06.81-.88a4.73,4.73,0,0,1,3.23-4.18,5.23,5.23,0,0,1,4.74.6,4.23,4.23,0,0,1,1.92,3.49l0,2.61.07,6a141,141,0,0,1-.47,15.61h0c-.89,9.22-8.26,14-13.72,16.76a4.8,4.8,0,0,1-2.21.36h-6.34c-4,0-8.1,0-12.13.06Zm-22.33-42.9a3,3,0,0,0-1.28.33c-1.68.81-1.39,2.47-1.06,3.39a6.27,6.27,0,0,0,.43,1q1.36,2.43,2.68,4.89c.76,1.42,1.51,2.84,2.23,4.28,1,1.95,1.9,3.91,2.82,5.87,1.49,3.15,3,6.4,4.71,9.49a64.77,64.77,0,0,0,6.06,8.77,6.82,6.82,0,0,0,6,2.55c4.06-.09,8.19-.08,12.19-.06h6.34a3.37,3.37,0,0,0,1.13-.11c8-4.07,11.84-8.66,12.44-14.88a141,141,0,0,0,.46-15.35l-.08-6c0-.88,0-1.75,0-2.63a1.91,1.91,0,0,0-.9-1.55,2.91,2.91,0,0,0-2.57-.34,2.36,2.36,0,0,0-1.71,2.2,3,3,0,0,1-3.38,3c-1.78-.16-2.83-1.46-2.82-3.46,0-.33,0-.66,0-1a7.48,7.48,0,0,0-.06-1.92,4.55,4.55,0,0,0-1.09-2.26,2.29,2.29,0,0,0-2.29-.47,3,3,0,0,0-1.83,2.31c-.54,2.87-2.42,3.09-3.5,3-.83-.1-2.77-.63-2.72-3.53V199c0-.95,0-1.93,0-2.87a2.51,2.51,0,0,0-2.55-2.47c-1,0-2.25.21-2.68,2.43-.55,2.85-2.51,3-3.34,2.94a3.07,3.07,0,0,1-2.87-3.46v-1.23q0-8.19,0-16.37v-4.38a3.53,3.53,0,0,0-.27-1.4,2.36,2.36,0,0,0-2.34-1.43h0a2.38,2.38,0,0,0-2.33,1.43,3.78,3.78,0,0,0-.28,1.45c0,1,0,2,0,3V178q0,3.9,0,7.8v8.3c0,3.95,0,7.91,0,11.86v1c0,.47,0,.94,0,1.41,0,1.13-.71,3-1.94,3.49s-3-.35-3.82-1.11c-1.48-1.42-2.9-2.87-4-4l-1.83-1.9c-.7-.73-1.41-1.46-2.12-2.18A2.41,2.41,0,0,0,100.57,201.85Zm24.59-13.45V178c0-1.57,0-3.14,0-4.7A8.61,8.61,0,0,0,125,172a6.09,6.09,0,0,0-3.94-4.63A6.49,6.49,0,0,0,114,169a6.08,6.08,0,0,0-1.59,3,6.57,6.57,0,0,0-.15,1.53c0,1.2,0,2.39,0,3.59v11l-1.6-.61c-3.47-1.31-6.26-4.73-7.48-9.14a16.62,16.62,0,0,1-.45-6.63l0-.16a15.78,15.78,0,0,1,14.14-13.08c8-.6,14.78,3.85,17,11.05a14.39,14.39,0,0,1,.46,2,15.51,15.51,0,0,1-.4,6.77,15.14,15.14,0,0,1-7,9.05Zm-6.89-27.58c-.4,0-.8,0-1.21.05a13.55,13.55,0,0,0-12,11.07l0,.13a14.26,14.26,0,0,0,.39,5.68,12,12,0,0,0,4.44,6.71v-7.33c0-1.19,0-2.38,0-3.58a10,10,0,0,1,.21-2,8.56,8.56,0,0,1,2.17-4.14,8.87,8.87,0,0,1,9.65-2.23,8.49,8.49,0,0,1,5.42,6.39,9.43,9.43,0,0,1,.19,1.75c0,1.57,0,3.14,0,4.72v6.11a12.82,12.82,0,0,0,4.15-6.42A13.12,13.12,0,0,0,132,172a11.28,11.28,0,0,0-.39-1.7C129.85,164.5,124.56,160.82,118.27,160.82Z"/></svg>