<svg id="Layer_1" data-name="Layer 1" xmlns="http://www.w3.org/2000/svg" viewBox="0 0 250 250"><defs><style>.cls-1{fill:#fcd305;}</style></defs><title>Grocode Home Icons</title><path class="cls-1" d="M107.5,219.85V198.09h-3.8l-94.79,0c-6.19,0-6.91-.75-6.91-7V50.35C2,45,3,44.08,8.37,44.08H216.29c4,.06,5.19,1.22,5.2,5.18q0,24.71,0,49.41c0,16.47.07,33-.07,49.42,0,2.84.85,3.67,3.52,3.39a47.37,47.37,0,0,1,5.59,0c3.79,0,5,1.23,5,5,0,13.37.11,26.73-.06,40.09,0,3,.64,5.06,3.28,6.64a52.29,52.29,0,0,1,6.46,4.84c3,2.52,2.71,4.68-.65,6.65-3.72,2.19-7.34,4.55-11.26,7L243.68,240c.51.9,1.07,1.78,1.5,2.72,1.2,2.57.59,4.75-1.65,5.8-2.46,1.16-4.16.15-5.39-2L226.7,226.09c-3.69,2.26-7.25,4.45-10.83,6.63-5,3.08-7.78,1.66-8.12-4.16-.24-4.14-.68-8.27-.72-12.41,0-2.88-1.22-3.58-3.93-3.54-9.63.15-19.27.06-28.9,0-5.23,0-6-.86-6.07-6.2,0-2.49,0-5-.09-7.46a3.08,3.08,0,0,0-.29-.72h-52.3v21.58h3.76q25.32,0,50.66,0c4.54,0,5.48.94,5.49,5.43q0,7.92,0,15.85c0,4.14-1.2,5.35-5.35,5.35H70.87c-6,0-12,0-18,0-4.43,0-5.55-1.12-5.56-5.44,0-5.29,0-10.57,0-15.85,0-4.35,1-5.34,5.24-5.34h55ZM9.7,73.19c-.07,1.33-.16,2.24-.16,3.16q0,55.31-.06,110.61c0,2.65,1,3,3.27,3q76.11-.07,152.24,0c1.1,0,2.2-.11,3.34-.17V177.38H147.47v-8h21.05c0-4.4,0-8.43,0-12.46,0-4.93,1-5.91,6-5.92h13.14l.37-3.63h7.6c.11,1.22.19,2.31.29,3.44h17.12V73.19ZM213.2,51.62H52.94c-13.46,0-26.93,0-40.39.05-1,0-2.82.78-2.85,1.28-.23,4-.13,8-.13,12H213.2Zm-37,107.74v46h30.56a8.34,8.34,0,0,0,.12-1.36c-.47-5.26-1.11-10.5-1.34-15.76-.07-1.51.64-3.78,1.73-4.42s3.25,0,4.78.55a13.94,13.94,0,0,1,3.29,2.29c3.71,2.74,7.41,5.49,11.45,8.5v-35.8ZM55.3,238.66H167.69V227.84H55.3Zm160.66-15,20.2-12.17-22.47-16.75C214.47,204.61,215.19,213.81,216,223.61Z"/><path class="cls-1" d="M71.6,132.45v39.14c0,4.43-1,5.44-5.51,5.44q-19.1,0-38.21,0c-4,0-5.19-1.19-5.19-5.2q0-39.47,0-78.92c0-4.33,1.08-5.43,5.24-5.43q19.26,0,38.53,0c4,0,5.09,1.08,5.1,5.21q0,19.88,0,39.77Zm-41.11,36.9H63.56V95.5H30.49Z"/><path class="cls-1" d="M86.78,105.07H196.26v7.61c-1.18,0-2.19.15-3.21.15q-50.94,0-101.9,0c-4.86,0-4.49.74-4.51-4.45C86.63,107.35,86.72,106.33,86.78,105.07Z"/><path class="cls-1" d="M168.92,87.66v7.42H86.81V87.66Z"/><path class="cls-1" d="M101.79,127.48v7.72l-6.24.32c0,3.12-.2,6.11.06,9s-.94,3.88-3.69,3.54a40.12,40.12,0,0,0-4.15,0c0-5.94-.22-11.69.19-17.4.09-1.16,2.46-2.84,4-3.07C95,127.14,98.28,127.48,101.79,127.48Z"/><path class="cls-1" d="M101.35,169.46v7.84c-3.54,0-7,.19-10.45-.07-2.07-.15-3.2-1.69-3.2-3.88v-16h7.44v12.1Z"/><path class="cls-1" d="M136,135.52h-23v-7.41h23Z"/><path class="cls-1" d="M136,177.53H113v-7.44h23Z"/><path class="cls-1" d="M170.39,128.09v7.37h-23v-7.37Z"/><path class="cls-1" d="M181.71,135.53v-7.62c3.61,0,7.1-.14,10.57,0,2.3.13,3.42,1.81,3.48,4,.08,3.19,0,6.39,0,9.86h-7.72c-.11-1.88-.24-3.87-.37-6Z"/></svg>